<?xml version="1.0" encoding="utf-8"?>
<!-- Generator: Adobe Illustrator 26.0.1, SVG Export Plug-In . SVG Version: 6.00 Build 0)  -->
<svg version="1.1" id="Calque_1" xmlns="http://www.w3.org/2000/svg" xmlns:xlink="http://www.w3.org/1999/xlink" x="0px" y="0px"
	 viewBox="0 0 1163 1144.7" style="enable-background:new 0 0 1163 1144.7;" xml:space="preserve">
<style type="text/css">
	.st0{fill:#E63E6F;}
	.st1{fill:#F1F1F1;stroke:#F1F1F1;stroke-width:19;stroke-miterlimit:10;}
	.st2{fill:#F1F1F1;}
	.st3{fill:#F1F1F1;stroke:#F1F1F1;stroke-width:21;stroke-miterlimit:10;}
</style>
<g id="Calque_2_00000004535718527629141350000013234022608845562798_">
	<g id="Calque_1-2">
		<path class="st0" d="M588.5,10.5c-6,5.1-8.8,6.4-14.3,6.4c-4,0.1-7.9,1-11.5,2.6c-8.4,3.5-15.2,5.3-16.7,4.4
			c-2.7-1.7-16.9,4.1-21,8.5c-2.4,2.4-5,4.6-7.7,6.6c-3,2.2-5.5,5-5.9,6.4s-0.1,5.5,0.6,9.3c0.7,3.8,1.8,10.1,2.6,14.2
			c1.7,9.2,1.8,18.7,0.3,28c-1.9,11.6-1.6,14.2,1.9,20.8l3.1,6.1l-4.1-0.2c-4.4-0.2-4.2-0.3-7.9,7.7c-1.3,2.9-5.1,7.8-9.1,11.7
			c-5.6,5.6-7.8,7-12.5,8.4c-5.3,1.8-10.5,4-15.5,6.6c-12.4,6.2-23.3,9.9-29.6,9.9c-4.4,0-5.8,0.6-12.4,5.4
			c-7.2,5.3-21.9,12.6-25.3,12.6c-0.9,0-2.9,1.2-4.4,2.8c-2.3,2.3-2.9,3.9-3.4,9.9c-0.3,3.3-0.9,6.6-1.7,9.9
			c-1.3,3.3-1.6,9.1-0.6,10.1c0.4,0.5,3.2,1,6.2,1.3l5.5,0.5l-8.2,5c-20.9,12.8-21.3,12.9-31.5,9.6c-3.3-1-11.9-2.4-19.1-3
			c-8.5-0.7-15.3-1.8-19-3.2c-12.8-4.6-16.4-4.7-23.1-0.8c-4.1,2.4-4.2,2.4-4.2-0.3c0-2.2-5.5-11.2-9.9-16l-2.4-2.7l3.8-3.5
			c3.7-3.5,3.8-3.6,3.2-9.3c-0.7-7-2.9-9.3-10.8-11.2c-5.3-1.3-5.5-1.2-12.9,2.3c-4.1,2-8.2,3.6-9.2,3.6s-3-1.4-4.5-3.1
			c-4.2-4.7-8.3-6.2-13.8-4.8c-2.4,0.6-5.2,0.9-6,0.5c-2.5-0.9-6.5,1.1-6.5,3.4c0,1.1,2,4,4.4,6.5c6.3,6.3,6.6,6.9,5,13.4
			c-2,8.4-1.8,10.9,1.5,14.6c2.3,2.6,3,4.6,3.6,9.9c0.6,6.4,0.8,6.7,5.1,9.7c6.9,4.7,7.2,5.5,8,23.4c0.7,15.7,0.7,15.9,3.5,18.5
			s2.8,2.5,1.7,9.1c-1.6,9.4,0.4,20,4.3,23.4l2.8,2.3l-4.7,0.6c-2.6,0.3-6,0.6-7.7,0.6c-2.1,0.1-4.2,0.6-6.1,1.6
			c-2,1.2-4.4,1.5-6.7,1c-3.7-0.7-3.7-0.8-3.7-5.5c0-5.5-0.9-6.6-6.7-7.9s-8.7,0.3-9.1,4.8c-0.4,3.9-1.1,4.6-6.7,6.1
			c-2.1,0.6-4.2,1.4-6.1,2.4c-2,1.3-2.1,1.2-2-2.2c0.1-4.6-2.2-6.3-5.8-4.3c-2.3,1.2-2.8,1.1-3.9-0.5s-2.2-1.7-6.2-1
			c-4.2,0.6-5.7,1.5-10.6,6.5c-2.7,2.7-5.3,5.7-7.5,8.9c-1,1.7-2.1,3.1-2.5,3.1s-1.2-2.6-1.9-5.7c-1-4.6-2.1-6.6-5.9-10.4
			c-3.3-3.6-6-7.6-8-12c-6-13.2-5.3-12.4-9.4-12.5c-3.2,0-4.1-0.6-5.7-3.2c-2-3.2-6.1-4.4-7.5-2.2c-0.3,0.5-2.1,1-3.8,1
			c-3.8,0-9,2.9-11.3,6.5c-2.1,3.2-7.8,3.6-9.4,0.5c-1.8-3.3-4.8-4.4-7.4-2.6c-2,1.3-2.4,2.5-2.8,8.9c-0.3,4-0.8,7.9-1.2,8.5
			c-0.5,0.8-3.8,1.2-9,1.2c-7.2,0-8.6,0.3-11.6,2.5c-4.3,3.2-7.6,3.3-8.6,0.2c-1.6-5.3-5.9-7.1-10.7-4.5c-2.7,1.6-5.2,3.4-7.7,5.3
			c-5.5,4.3-5.6,4.3-7.9,2.4c-1.2-1-2.6-1.7-4.1-1.9c-1.6,0-23.3,10.6-28.7,14C10.2,329.2,0,348.1,0,350.7c0,3.6,12.5,6.5,17.6,3.9
			c2.4-1,5-1.7,7.6-2c5.6-0.8,7.4,0.7,5.9,4.6c-0.8,2-1.8,2.6-4.7,2.9c-3.4,0.3-3.8,0.6-5,4.8c-1,3.3-1,4.7-0.2,5.8
			c1.9,2.3,6.5,4.2,10.1,4.2c2.6,0,4.5,1,7.7,3.7l4.2,3.8L32,382.5c-9.5,0.1-11.6,0.4-13.8,2.1c-1.8,1.2-2.9,3.2-2.7,5.4
			c0,3.3,0.2,3.5,6,5.4c6.9,2.3,8.1,3,11.4,6.7c2.2,2.5,2.3,3,1.2,7.3c-1.3,5.3,0.3,10.6,4,12.5c3.2,1.8,14.1,0.7,18.2-1.7
			c1.8-1.1,6.2-2.3,9.7-2.7c3.7-0.4,7.3-1.5,8.4-2.4c1.5-1.4,2-1.4,2.4-0.4c0.8,2.3,6.4,8.2,9.1,9.6c1.4,0.8,5.3,1.7,8.6,2.1
			c7.4,0.9,11.1,2.7,11.8,5.7c1,3.8,8.1,10.1,11.4,9.9c12.4-0.5,13.1-0.4,17.1,3.9c3.6,3.7,4.3,4,9.3,4c2.9,0,5.8-0.3,8.7-0.9
			c2.5-0.8,3.2-0.7,3.2,0.5c0,0.8,1.6,3.2,3.6,5.3l3.5,4l13.3-0.6c11.9-0.5,13.3-0.4,13.9,1.1c0.4,1,0,3.1-0.9,4.7
			c-2.4,4.8-3,15.8-1,19.7c2.8,5.4,4.9,6.2,14.6,5.3c4.7-0.4,9.3-1.1,10.4-1.6c1.6-0.7,1.8-0.5,1.4,2.1c-0.4,2-1,4-1.8,5.9
			c-0.9,2.3-1,4-0.1,7.1c1,3.6,1.6,4.3,4.5,4.8c3.8,0.7,5.3,2.1,5.6,5.1c0.4,3.5,0.1,4.3-1.9,5c-1.7,0.7-3.2,1.7-4.5,3
			c-3.3,3.1-3.4,7.1-0.1,15c1.9,4.8,3.3,6.6,7,9s5.7,4.9,9.6,12c2.7,4.9,5.4,10.8,5.9,13c1,4.7,6,9.6,15.3,15c3.4,2,8.3,5,10.9,6.7
			c2.8,1.8,5.9,3,9.2,3.5c3.8,0.5,4.6,1,5.7,3.5c2.8,6.7,6.1,7.3,15.1,2.8l6-3.1l-0.6,2.7c-0.6,2-1.5,3.8-2.7,5.5
			c-2.4,3.4-2.4,5.5,0,11c3,7,4.6,15.6,3.2,17.2c-0.6,0.8-1,3.9-0.9,7s-0.1,5.9-0.5,6.3c-1.2,1.3-3.9-2.2-5.6-7.2
			c-1-3-2.8-5.7-5.3-7.7c-3.6-2.9-3.8-2.9-6.3-1.3c-3.4,2.3-3.2,5.7,1,13.8c1.7,3.3,3.1,6.7,4.1,10.3c0.5,2.9,1,3.5,3.2,3.5h2.5
			l-2.1,2.3c-2.6,2.8-2.7,4.5-0.4,7.3s4.6,3.9,10.8,5.3c4.1,1,6.1,2.3,10.6,6.9c6.8,7.1,10.9,12.4,13.7,17.9
			c2.2,4.3,5.6,17.2,4.7,18c-0.2,0.2-0.7-1.1-1.1-2.9c-0.7-2.6-1.7-5-3-7.3c-2.5-4.4-15.7-17.2-22.8-22.2c-7.6-5.3-8.2-3.7-9.8,25.2
			c-0.5,9.3-1.4,23.5-2,31.5s-1.1,17.6-1.1,21.3c0.1,5.1-0.4,7.9-1.9,10.9c-3.9,7.7-0.8,10.8,6.9,6.9c4.5-2.3,5.2-2,5.2,2.1
			c0,2.2-0.4,2.8-2.2,2.8c-1.3,0-4.1,1.1-6.3,2.3c-3.8,2.1-4,2.6-4.7,8.2c-0.4,3.3-1.4,9.1-2.2,13c-1.3,7.6-2.1,15.3-2.6,23
			c-1.2,18.2-4.7,37.1-11.8,62.9c-6.3,23-11.9,32.3-21.2,35c-4.4,1.3-4.5,1.5-4.3,5.1c0.4,5.5,1.8,6.7,6.8,5.9
			c4.2-0.6,4.3-0.5,5.4,2.9c0.7,2,1.7,3.8,2.4,4c2.1,0.5,4.1-0.8,4.6-2.9c0-0.1,0.1-0.3,0.1-0.4c0-1.1,0.1-2,0.3-2s3.2,1,6.8,2.3
			c6.1,2.2,6.5,2.5,5.8,4.8c-1,3.9-3.1,7.4-6.1,10.1c-1.5,1.4-2.8,3.1-2.8,3.7c0,1.7,6.7,8.1,8.5,8.1c0.9,0,2.9-1,4.5-2.1l2.9-2.2
			l3.9,3.2c2.9,2.2,5,3.1,7.8,3.1c2.2-0.1,4.4,0.6,6,2.1c1.7,1.4,3.9,2.3,6.1,2.5c2.8,0.3,5.5,0.9,8.2,1.8c2.4,0.9,5,1.4,7.6,1.6
			c2.3,0,4.3,1,7.4,4c2.3,2.3,5.2,4,6.5,4c3.2,0,5.3,2,6.3,6c1.1,4.4,3.9,5,7.9,1.7c2.2-1.9,3.7-2.3,6.6-1.9
			c2.4,0.4,4.8-0.3,6.7-1.7l3-2.1l5.3,5.6c2.9,3.1,5.5,5.9,5.8,6.3c1,1.1,2.2,2,3.4,2.9c4,3,10.5,2.9,17.5-0.3l5.5-2.6l4.1,4.1
			c2.2,2.2,4.5,4,5.1,4s2.1-1.1,3.3-2.4c2-2.1,2.7-2.3,6.3-1.4c4,0.6,8,0.7,12,0.5c7-0.3,8.2-0.7,10.8-3.2c3.2-3.1,3.9-7.1,2-12.1
			c-0.6-1.5-0.9-2.8-0.7-3s3.9,1.1,8.3,3c4.6,1.9,9.4,3.3,14.4,3.9c8.6,0.8,9.2,1.1,11.2,5.7c1.3,3.2,2.2,4,4.3,4
			c1.5,0,2.9-0.5,4.1-1.5c1.4-1.3,2-1.2,5.5,0.5c2.1,1.1,3.9,2.7,3.9,3.4s1.2,2.8,2.6,4.5c3.3,4,7.4,4.2,10.3,0.5
			c1.8-2.3,2.3-2.5,3.8-1.3c0.9,0.8,3.6,1.4,6,1.4c4.3,0,4.5,0.1,5.9,4c1.1,3.2,1.2,4.5,0.2,6.3c-1.6,3.1,0,5.5,3.8,5.6
			c1.6,0.1,5.3,1.6,8.2,3.5c4.2,2.7,5.2,3.8,5.2,6.1c0,4.8,2.2,5.6,9.3,3.5c3.9-1.2,7.8-2.6,11.5-4.3l5.4-2.4l6,3.1
			c4.7,2.4,7.4,3.1,11.6,3.1c4.7,0,6,0.4,8.4,2.7l2.8,2.7l2.8-2.2c6.2-4.7,13.2-8.3,20.6-10.7c7.2-2.3,7.7-2.3,14.6-0.9
			c11.2,2.4,12.7,0.5,6.1-7.4c-6.8-8.2-8.4-16.3-5.5-27.6c1.6-6.3,1.5-16.2-0.4-27.6c-0.9-5.4-0.9-5.6,2.7-9.6s5.3-7,6.4-10.5
			c0.4-1.1,2.2-1.8,5.7-2.2c2.9-0.4,6-1.3,7-2.2c1.5-1,3.2-1.5,5-1.5c2.8,0,4.4-1.1,9.7-6.5c4.8-5,6.3-7.2,6.3-9.4
			c0-3.2,3.3-5.2,5.3-3.2c1.8,1.8,6.2,1.2,8.5-1.2c1.8-2,3.3-4.3,4.5-6.7c1.6-3,3.2-4.6,5.1-5.1c1.7-0.5,3.3-1.3,4.6-2.4
			c1.6-1.5,1.8-1.3,3,1.5c1.1,2.1,2.8,3.9,4.9,5c2.4,1.3,4.6,3,6.5,4.9c3.2,3.4,8.2,4.2,9.2,1.6c0.5-1.2,1-1,2.6,1.1
			c4,5,10.1,5,14,0.1l1.8-2.2v2.7c0,3.5,2.8,5.1,6.1,3.4c2.1-1.1,2.9-0.8,7,2.1c11.1,7.9,17.5,7.7,20.1-0.8c0.6-2.2,1.4-3.9,1.8-3.9
			c1,0,4,3.5,4,4.7c0,2.9,3.9,4.3,15.1,5.3c6.2,0.5,12.2,1,13.2,1c2.3,0,2.2,2.2-0.4,7.1c-2.3,4.7-2.2,9.2,0.3,9.7
			c1,0.2,4.7-0.8,8.3-2.3c7.5-3,9.7-2.7,12.2,1.7c1.7,2.2,3.9,4,6.4,5.3c5.2,2.7,17,5.1,19.7,4s31.7-3.7,39.5-3.5
			c5.1,0.1,7.5-0.3,9.5-1.7c2.5-1.6,5.1-3,7.7-4.3c2.7-1.4,5-3,5.1-3.5s0.4-3.3,0.8-6c0.6-4.2,1.2-5.3,3.7-6.8
			c2.1-1.4,3.7-3.4,4.6-5.7c1.2-3.1,2.1-4,3.9-4c2.7,0,10-6.1,10.9-9.1c0.4-1,2.6-2.7,5-3.8c6.6-2.9,12.2-7.8,14.8-13
			c2.1-4.1,2.7-4.6,6.1-4.9c5.2-0.4,19.5-7.9,20.9-10.9c0.8-1.7,0.8-3.6,0-6.4c-1-3.7-0.8-4.3,1.3-6.7c7.9-8.8,12.3-14.6,13.6-18.1
			c1.5-3.9,1.5-4.2-0.5-6.7c-1.4-2-2.1-4.4-2.1-6.8c-0.1-3.3-0.5-4.2-2.1-4.4c-1.2-0.2-3.1,0.8-4.5,2.3c-1.8,1.9-3.3,2.5-6.5,2.5
			c-2.2,0-4.5,0.4-5.1,1c-1.8,1.8-7,1.4-10-0.7c-2.2-1.4-4.5-2.5-6.9-3.3c-2.2-0.7-6.2-2.3-9-3.5s-6.2-2.8-7.8-3.4
			c-1.7-0.8-3-2.1-3.7-3.8c-0.9-2.2-1.9-4.3-3-6.4c-1.1-2.2-1.8-4.6-2-7c-0.2-2.6-0.8-5.1-1.9-7.4c-1.7-3.8-1.7-4.1-0.1-6.5
			c1.6-2.8,2.9-5.8,4-8.8c2.2-6.1,2.3-6.2,6.1-6.2c3.6,0,3.9-0.2,3.9-2.9c-0.2-2.2-1.1-4.2-2.5-5.9c-1.7-1.9-2.6-4.4-2.5-7
			c0-4.9-1-5.8-10.2-8.6c-6.9-2.1-7.4-2.4-9.5-6.6c-1.1-2.2-1.9-4.5-2.2-6.9c-0.1-1.3-1.7-4.1-3.6-6.2c-4.5-5-4.5-6.9-0.2-6.9
			c1.9,0,3.7-0.3,4-0.7s3.2-0.5,6.2-0.4c5.8,0.3,6.6-0.2,12.3-7.7c2-2.8,2.5-2.9,5.2-1.9c2.4,0.9,3.2,0.8,4.9-0.7
			c3.1-2.9,5.5-9.9,4.7-14.5c-0.4-2.8-0.2-4.2,0.9-5.1c2.7-2.3,1.6-4.8-4.6-9.9c-3.3-2.8-6.4-5.1-6.9-5.1s-1.3-1.4-2.1-3.1
			c-1-1.9-1-4.2-0.1-6.2c1.5-4-0.5-7.3-5-8.5c-2.7-0.7-4.1-2.2-7.5-8l-4.2-7.1l2.2-1.6c1-0.7,2.2-1.3,3.5-1.5
			c2.1,0,14.2-12,14.2-14.1c0-3.1-3.8-10.7-5.9-11.8c-1.5-0.7-3.2-1.1-4.9-1.1c-2.9,0-2.9,0-2.1-4.3c1.2-6.4,1.2-6.7-2.8-8.4
			c-1.5-0.5-2.9-1.1-4.2-1.9c-0.2-0.2,1.3-2.3,3.3-4.8c4.7-5.7,4.7-9.1,0.3-13.4c-2.6-2.5-3.3-3.9-2.9-6c0.5-3.4-0.4-4.2-9.2-7.7
			c-7.7-3-10.4-2.9-19,0.4c-2.6,1-5.2,1.9-7.9,2.6c-1.6,0.3-5,2.6-7.6,5c-5.6,5.2-7.4,5.5-9.7,1.7c-1.2-1.7-2.6-3.3-4.1-4.8
			l-2.4-2.1l3.6-5.2c3.7-5.6,4.1-7.1,2.5-10.1c-0.8-1.5,0.1-2.5,5.7-6.4s12.5-10.7,15.1-15.1c0.4-0.7,2.1-1.8,3.7-2.6
			c2.5-1.2,3.1-2.1,3.3-5.3c0.3-3.9-2.3-11.6-4-11.6c-0.4,0-0.8-0.4-0.8-0.8c0-0.4,3.8-2,8.4-3.5c6.2-2,10-4,14.1-7.4
			c5.2-4.3,5.6-5,5.2-7.9s0-3.6,3.5-6.4c2.8-2.5,5.1-5.5,6.7-8.8c4.1-8.7,4.2-8.8,8.8-10c3.5-1,4.3-1.6,4.3-3.6c0-2.7-3.4-5.3-8-6.3
			c-3.5-0.7-3.4-0.3-1.5-5.1c2.4-5.8,6.3-8.3,11.9-7.6c4.9,0.7,5.5,1.4,3.1,3.4c-1.9,1.6-1.9,3.4-0.1,4.9c1,0.9,4,1,10.1,0.5
			c8-0.6,9-1,13.4-4.5c2.8-2,5-4.8,6.5-7.9l1.7-4.2l4.3,0.6c5.5,0.9,7-0.7,6-6c-0.5-2.6-2.3-5.5-5.6-9l-4.8-5.1l2.1-4.9
			c1.2-2.9,2-6,2.3-9.1c0.5-3.1,1.5-6.1,3-8.8c3.1-5.7,3.2-6.8,0.5-11.1c-2.1-3.4-2.5-6.7-2.1-16.6c0.2-5.4,0.5-6.1,5.1-11.2
			c3.4-3.7,5.2-6.7,5.7-9.3c0.5-2.5,1.3-4.9,2.5-7.1c1.4-2.4,1.9-5.1,1.8-9.5c-0.1-4.7,0.4-7.3,2.2-10.7c3.7-7.3,13-20.2,18-25
			c5.3-5.1,9.3-12.5,13.4-25.3c3.5-10.7,3.1-11.4-6.9-12.4c-5.2-0.5-7.5-1.2-9.7-3.1s-3.6-2.3-6.2-1.8c-7.5,1.4-15.3,1.1-22.7-0.9
			c-8-2-8.5-2.3-9.4-5.3c-0.7-2.1-1.8-4.1-3.3-5.8c-2.6-2.8-3.5-2.8-12.2,1.3c-4.2,1.9-6.3,2.3-9.5,1.9c-2.7-0.4-5.4-0.7-8.1-0.9
			c-4-0.2-8.4-2.7-13-7.3c-0.9-1-2-1.8-3.2-2.4c-2.4,0.1-8.5,2.9-9.7,4.6c-1.4,1.8-1.5,1.8-3.4,0.1c-1.5-1.7-2.6-3.8-3.2-6
			c-1.9-6.4-3.8-9.7-6.5-10.9c-1.7-0.8-2.7-2.2-3.1-4.7c-0.3-1.8-0.6-3.6-1.1-5.4c-0.6-2.3-11.7-7.7-15.6-7.7c-1.5,0-5.1-1.4-8-3
			s-6.5-3-7.8-3s-5.4,2-8.8,4.5c-5.1,3.5-6.7,4.2-8.2,3.4c-1.1-0.5-1.9-1.4-1.9-1.9c0-2.7-3.4-4-10.8-4c-6.4,0-7.9-0.3-9.9-2.1
			c-2.4-2.3-5.8-2.8-10.9-1.6c-3.7,0.9-7.8-1.8-9.8-6.8c-2.5-6-9.1-9.8-11.2-6.4c-0.4,0.7-1.2-0.1-2-1.9c-1-2.4-2.2-3.3-5.4-4.2
			c-2.8-0.9-5.3-2.4-7.4-4.5c-3.5-3.8-13-8.5-16.9-8.5c-2.6,0-2.7-0.3-2.7-4.9c0-2.8,0.5-5.3,1.1-5.7c1.6-1,0.4-9.7-1.8-13.4
			c-1.7-3-1.7-3.2,0.4-7.3c2.7-5.4,3.6-10.6,2.2-12.3c-0.7-0.8-3.1-1.4-5.6-1.4c-4.1,0-5,0.5-9.4,4.9c-4.2,4.3-4.9,5.5-4.9,9
			c0,4.5-2.6,7.1-7.1,7.1c-1.5,0-5.1,1.6-8,3.5c-5.9,4-7.1,4-17.2,0.2c-5.9-2.2-5.9-2.2-5.4-5.8c0.3-2.1,1.2-4.1,2.6-5.8
			c1.2-1.3,2-3.1,2.1-4.9c0-2.9-2.6-6.2-4.8-6.2c-0.7,0-1.2-1.1-1.2-2.4c0-4.1,1.8-7.6,4.5-8.6c3.7-1.4,3.2-4.4-1.2-7.1
			c-2.7-1.7-5.2-3.8-7.4-6.1l-3.5-3.7h-11.5c-7.8,0-12.1,0.5-13.5,1.4c-2,1.3-2.2,1.1-3.3-4c-1.5-6.6-6.2-13.9-11.2-17.2
			c-3.9-2.6-12-3.5-16.6-1.9c-1.8,0.7-2.7,0.1-5.3-3.5c-2.3-3.3-3-5-2.5-6.9c2.2-8.7,2.2-8.6-4.8-13c-4.2-2.7-6.7-4.9-7.1-6.5
			c-0.9-3.4-4.2-4-10.5-1.9c-4.6,1.5-8,4.3-9.5,7.7c-0.5,1.3-4.9-3.2-9.3-9.6c-1.6-2.5-4.2-4.3-7.1-4.9l-4.5-1.1l0.7-8.6
			c0.6-8,0.5-8.8-1.8-12.2c-1.5-2.3-2.6-4.8-3.2-7.5c-0.2-1.8-0.8-3.6-1.7-5.2C595.2,7.2,591.8,7.7,588.5,10.5z"/>
		<path class="st0" d="M1144.2,968.9c-4.7,0.7-6.1,2.1-6.3,6c0,1.4-0.3,8.3-0.5,15.4s-0.6,13.2-0.9,13.4s-1.5,0-2.8-0.5
			c-2.8-1.3-8.5-0.2-16.8,3.3c-3.1,1.3-6.5,2.4-7.5,2.4c-2.3,0-11.5,4.2-15.4,7c-1.2,1-2.7,1.6-4.2,2c-3,0-4.8,3.5-4.8,9.3
			c0,4.8-0.4,5.8-2.6,7.6c-1.4,1.1-2.9,2-4.5,2.6c-1.4,0.5-1.9,1.6-1.9,4c0,3.1,0.3,3.5,3.9,4.5c1.9,0.4,3.7,1.3,5.2,2.6
			c1.1,1.3,0.9,1.4-1.4,0.9c-3.2-0.9-7.7,3.1-7.7,6.9c0,4.6,6.8,13.9,13,17.7c1.2,0.7,1,1.3-1.5,3.4c-1.7,1.5-3.5,2.7-5.5,3.8
			c-3.2,1.6-3.5,3.5-1,7.4c1.8,3.1,2.3,3.3,7.5,3.3c3,0,5.5,0.4,5.5,0.9c-0.3,2-0.6,4-1.1,5.9c-1,4.3-1.6,5.1-4,5.6
			c-2,0.4-2.9,1.2-2.9,2.4c0,3.2,3.3,5.2,8.3,5.2s7,1.6,4.2,3.6c-1,0.8-1.9,3.1-2.2,5.8c-0.5,4-0.1,5,3.1,9.4
			c3.8,5.3,5.2,6.2,9.4,6.2c2.4,0.3,4.8,0.9,7,2c3.6,1.6,4.7,2.9,6.7,7.4c1.8,4.2,3.1,5.7,5.1,6.2c3.6,0.9,7.4-2.2,8.9-7.2
			c0.9-2.8,2.2-5.5,3.8-8c1.5-2.1,2.7-4.4,2.7-5c0.4-1.4,1.1-2.7,2.1-3.8c1.4-1.6,2-3.8,1.6-5.9c-0.4-1.7,0-3.6,1.1-5
			c1.1-1.3,1.7-5,2.2-13.5l0.7-11.7l6.2-12.2c5.7-11.4,6.1-12.7,6.1-19c0-3.7-0.5-10.8-1-15.7c-0.8-6.4-0.7-9.9,0.1-12.3
			c1.1-3.5-0.2-14.7-2.2-18.5c-0.5-1-0.8-2.2-0.9-3.3c0-0.9-1.1-2.1-2.5-2.7c-1.9-0.9-2.4-1.6-1.9-3.2c1.1-3.1,2.7-6,4.6-8.7
			c0.8-1.2,0.6-2.6-1-6c-1.5-3.8-2.4-7.8-2.6-11.9c-0.4-6.1-0.9-7.8-2.7-9.3c-0.9-0.8-2.1-1.3-3.3-1.6
			C1149,968.1,1146.5,968.5,1144.2,968.9z"/>
		<path class="st1" d="M765.7,267.6c-4.3,0.2-10.9,0.9-14.5,1.4c-3.7,0.5-7.9,1.1-9.3,1.2c-1.4,0.1-4.3,0.7-6.4,1.2
			c-2.1,0.5-4.4,1.1-5.2,1.2c-9.8,1.7-29.2,7.9-42.8,13.7c-6.4,2.7-19.6,9.2-22.9,11.2c-1.2,0.8-4.1,2.5-6.4,3.9
			c-11.5,6.9-22.3,14.8-32.5,23.4c-7,6.3-25.2,25-28.5,29.2c-0.5,0.6-2.3,3-4.1,5.2s-4.1,5.2-5,6.7c-0.9,1.5-3.5,5.1-5.6,8.1
			c-3.3,4.8-14.4,23.8-14.4,24.6c-0.7,1.8-1.4,3.5-2.3,5.2c-6.9,14.3-12.2,29.4-15.9,44.8c-2.1,8.4-3.6,17-4.5,25.7
			c-1.4,10.1-2.1,20.3-2.3,30.5c0,9.4,2.1,34,3.5,40.1c0.4,1.4,1,4.6,1.5,7c1.4,7,3,14,4.1,17.4c2.6,9.2,5.8,18.2,9.6,27.1
			c0.6,1.3,1.4,3.2,1.8,4.3c3.3,8.4,14.9,28.9,23.1,40.8c10.3,14.8,30.4,36.5,42.8,46.2c1.3,0.9,3.7,3,5.5,4.4
			c8.3,6.9,26.9,18.6,39.3,24.8c15.5,7.8,36.6,15.5,50.3,18.5c0.5,0.1,2.6,0.6,4.6,1.1c2.1,0.5,4.6,1,5.5,1.2
			c7.1,1.3,12.6,2.1,13.7,2.2c1.5,0.1,3.1,0.3,4.6,0.6c7.9,1.3,27.7,1.9,39.4,1.2c6.4-0.4,12.9-0.8,14.4-1.1
			c1.6-0.2,4.1-0.5,5.5-0.6c8.3-1.1,16.6-2.6,24.7-4.6c4.1-0.9,13.2-3.5,15.7-4.3c1.6-0.6,3.9-1.4,5.2-1.8
			c2.4-0.7,12.1-4.5,16.3-6.3c1.3-0.6,3.3-1.4,4.4-1.9c8.1-3.7,16.1-7.9,23.8-12.4c8.6-5.2,21.9-14.3,25.3-17.4
			c0.4-0.4,2.1-1.8,3.8-3.1c11.6-9.6,22.3-20.3,32-31.8c1-1.2,2.8-3.4,3.9-4.8s3.7-4.6,5.5-7.3c1.8-2.6,3.8-5.4,4.4-6.2
			c2.7-3.7,5-7.5,7.1-11.6c0-0.3,0.3-0.6,0.6-0.7c0.3,0,0.6-0.2,0.6-0.5c0,0,0,0,0-0.1c0.5-1.3,1.2-2.5,1.9-3.6
			c1.8-2.9,10.9-20.8,10.9-21.6c0.4-1.2,0.8-2.3,1.4-3.4c0.7-1.7,2.2-5.5,3.2-8.3c1-2.8,2.1-5.8,2.4-6.4c0.9-2,4.8-15.1,6.4-22.1
			c4.3-17.5,7.2-46.3,6.2-61.9c-0.8-13.5-1.7-24.1-2.2-26.7c-0.3-1.4-0.8-4.6-1.2-7s-1.2-6.6-1.8-9.3c-0.7-2.7-1.7-7.1-2.3-9.9
			c-1-4.3-2.5-9.4-5.5-18.3c-1.1-3.3-3.7-10-4.9-12.7c-0.6-1.3-1.6-3.7-2.3-5.2c-9.4-21.7-22.1-41.8-37.6-59.8
			c-3.7-4.4-19.3-20-23.9-23.9l-4.3-3.7c-1.7-1.5-7.4-5.9-14.8-11.1c-5.9-4.2-23.7-14.8-29.5-17.6c-2.2-1-5.6-2.7-7.5-3.6
			c-11.3-5.6-36.5-14.1-48.6-16.4c-2.5-0.5-7.8-1.6-8.9-1.8c-3.4-0.7-6.8-1.2-10.2-1.5c-3-0.3-7.5-0.9-9.9-1.2
			C796.4,267.3,775.3,267,765.7,267.6z M797.1,297c9.3,0.7,18.6,2.1,27.8,4.1c89.3,19.7,155.3,95.1,163,186.2
			c0.8,14.6,0.5,29.3-0.9,43.9C972.3,645.4,867.8,726,753.7,711.3c-1-0.1-2-0.3-3-0.4c-83.6-12.1-151.6-73.3-172.4-155.2
			c-4.8-19.1-6.4-33-5.9-55.2c0.4-20.2,2.2-34.1,6.6-50.2c13.2-48.5,43.5-90.7,85.2-118.8C702.7,305.5,751.3,292.9,797.1,297z"/>
		<path class="st2" d="M740.1,336.3c-0.5,0.3-0.6,0.6-0.3,0.6c0.5-0.1,1-0.3,1.4-0.6c0.5-0.3,0.6-0.6,0.3-0.6
			C741,335.8,740.5,336,740.1,336.3z"/>
		<path class="st2" d="M734.6,338c-3.2,1.3-4.4,2.1-2,1.4c2.3-0.7,6.2-2.5,5.5-2.5C736.9,337.2,735.7,337.6,734.6,338z"/>
		<path class="st2" d="M728.5,340.6c-0.8,0.5-1.2,0.8-0.9,0.8c0.7-0.1,1.4-0.4,2-0.8c0.8-0.5,1.2-0.8,0.9-0.8
			C729.8,339.9,729.1,340.2,728.5,340.6z"/>
		<path class="st2" d="M725.6,342c-0.5,0.4-0.6,0.6-0.2,0.6c0.4,0,0.8-0.2,1.1-0.6C726.9,341.3,726.7,341.3,725.6,342z"/>
		<path class="st2" d="M719,345.3c-2.2,1.2-2.1,1.6,0.1,0.5c0.6-0.3,1.2-0.7,1.7-1.2C720.9,344.3,720.9,344.3,719,345.3z"/>
		<path class="st2" d="M575.6,469.6c0.3,0.4,0.6,0.7,1.1,1c0.9,0.7,0.9,0.7,0.2-0.2C576,469.4,575.6,469.1,575.6,469.6z"/>
		<path class="st3" d="M562.4,635.3c-8.9,2.9-14.1,9.9-14.1,18.9c-0.1,5,1.7,9.8,5.1,13.4l2.7,3l-7.8,7.4c-4.3,4.1-8,7.4-8.3,7.5
			c-1.9-1.6-3.7-3.3-5.3-5.1l-5-5l-10.4,10.3c-5.7,5.6-58.5,57.9-117.5,116.3l-107.2,106l-2.9,0.4c-14.6,1.8-22.3,19.5-13.4,31.1
			c1.1,1.4,12.9,14.3,26.2,28.4c21.8,23.3,24.5,26,27.7,27.5c9.5,4.9,21.2,1.2,26.1-8.3c1.4-2.8,2.2-5.8,2.2-8.9v-3.6l87-86.2
			c47.9-47.4,100.5-99.6,117-116l29.9-29.8l-5.6-5.6l-5.6-5.8l7.9-7.3l7.9-7.3l2.1,2c3.6,3.5,8.5,5.3,13.5,5c4.1,0,5.5-0.2,8.2-1.5
			c9.9-4.6,14.1-16.3,9.6-26.2c-0.5-1.2-1.2-2.3-2-3.3c-1.1-1.6-8-9-15.2-16.7c-7.2-7.7-18.1-19.2-24.1-25.7
			c-9.4-10.1-11.5-12-14.6-13.6C572.1,634.6,567.1,634.1,562.4,635.3z"/>
	</g>
</g>
</svg>
